<svg xmlns="http://www.w3.org/2000/svg" version="1.1" xmlns:xlink="http://www.w3.org/1999/xlink" xmlns:svgjs="http://svgjs.com/svgjs" width="2515" height="300" transform="matrix(1,0,0,1,0,0)">
  <text font-family="DM Sans" font-size="260" text-anchor="left" x="310" charspacing="20px">
    <tspan dy="239.20000000000002" x="310">Cyberion Labs</tspan>
  </text>
  <path transform="matrix(0.7071067811865476,0.7071067811865475,-0.7071067811865475,0.7071067811865476,150,8.58)" d="M100,50L150,50L150,100L100,100ZM100,100L150,100L150,150L125,150A24.999999999999996,24.999999999999996,90,0,1,100,125ZM100,25A24.999999999999996,24.999999999999996,90,0,1,125,0L125,0A24.999999999999996,24.999999999999996,90,0,1,150,25L150,50L100,50ZM150,50L175,50A24.999999999999996,24.999999999999996,90,0,1,200,75L200,100L150,100ZM150,100L200,100L200,125A25.000000000000007,25.000000000000007,-270,0,1,175,150L150,150ZM0,100L50,100L50,125A25.000000000000007,25.000000000000007,-270,0,1,25,150L25,150A24.999999999999996,24.999999999999996,90,0,1,0,125ZM0,75A24.999999999999996,24.999999999999996,90,0,1,25,50L25,50A24.999999999999996,24.999999999999996,90,0,1,50,75L50,100L0,100Z"/>
</svg>